<svg width="301" height="447" viewBox="0 0 301 447" fill="none" xmlns="http://www.w3.org/2000/svg">
<rect width="301" height="447" rx="14" fill="url(#paint0_linear_1_188)"/>
<rect x="1" y="1" width="299" height="445" rx="13" stroke="#242424" stroke-opacity="0.2" stroke-width="2"/>
<path d="M161.569 208.831C161.054 208.831 160.552 208.983 160.124 209.269C159.697 209.555 159.363 209.961 159.167 210.436C158.97 210.911 158.918 211.434 159.019 211.938C159.119 212.442 159.367 212.906 159.73 213.269C160.094 213.633 160.557 213.88 161.061 213.981C161.566 214.081 162.089 214.03 162.564 213.833C163.039 213.636 163.445 213.303 163.731 212.875C164.016 212.448 164.169 211.945 164.169 211.431C164.169 210.741 163.895 210.08 163.407 209.592C162.92 209.105 162.258 208.831 161.569 208.831ZM171.535 214.074C171.493 212.276 171.157 210.498 170.539 208.809C169.988 207.364 169.13 206.056 168.025 204.974C166.952 203.863 165.641 203.011 164.19 202.482C162.506 201.846 160.726 201.501 158.925 201.464C156.629 201.334 155.892 201.334 149.999 201.334C144.105 201.334 143.369 201.334 141.072 201.464C139.272 201.501 137.491 201.846 135.807 202.482C134.359 203.017 133.049 203.868 131.972 204.974C130.861 206.047 130.009 207.358 129.48 208.809C128.844 210.493 128.499 212.274 128.462 214.074C128.332 216.371 128.332 217.107 128.332 223.001C128.332 228.894 128.332 229.631 128.462 231.927C128.499 233.727 128.844 235.508 129.48 237.192C130.009 238.643 130.861 239.954 131.972 241.027C133.049 242.133 134.359 242.985 135.807 243.519C137.491 244.156 139.272 244.5 141.072 244.537C143.369 244.667 144.105 244.667 149.999 244.667C155.892 244.667 156.629 244.667 158.925 244.537C160.726 244.5 162.506 244.156 164.19 243.519C165.641 242.99 166.952 242.138 168.025 241.027C169.135 239.95 169.993 238.64 170.539 237.192C171.157 235.504 171.493 233.725 171.535 231.927C171.535 229.631 171.665 228.894 171.665 223.001C171.665 217.107 171.665 216.371 171.535 214.074ZM167.635 231.667C167.62 233.043 167.371 234.405 166.899 235.697C166.553 236.64 165.997 237.492 165.274 238.189C164.571 238.905 163.721 239.46 162.782 239.814C161.49 240.286 160.127 240.535 158.752 240.551C156.585 240.659 155.784 240.681 150.085 240.681C144.387 240.681 143.585 240.681 141.419 240.551C139.991 240.577 138.569 240.357 137.215 239.901C136.318 239.528 135.507 238.975 134.832 238.276C134.113 237.58 133.564 236.727 133.229 235.784C132.7 234.473 132.406 233.08 132.362 231.667C132.362 229.501 132.232 228.699 132.232 223.001C132.232 217.302 132.232 216.501 132.362 214.334C132.372 212.928 132.628 211.535 133.12 210.217C133.502 209.303 134.087 208.488 134.832 207.834C135.49 207.089 136.304 206.497 137.215 206.101C138.536 205.624 139.928 205.375 141.332 205.364C143.499 205.364 144.3 205.234 149.999 205.234C155.697 205.234 156.499 205.234 158.665 205.364C160.041 205.38 161.403 205.629 162.695 206.101C163.68 206.466 164.564 207.06 165.274 207.834C165.984 208.5 166.539 209.313 166.899 210.217C167.38 211.537 167.629 212.93 167.635 214.334C167.744 216.501 167.765 217.302 167.765 223.001C167.765 228.699 167.744 229.501 167.635 231.667ZM149.999 211.886C147.801 211.89 145.654 212.545 143.829 213.769C142.004 214.993 140.583 216.731 139.745 218.762C138.907 220.793 138.69 223.028 139.122 225.182C139.553 227.337 140.613 229.315 142.169 230.868C143.724 232.42 145.704 233.477 147.86 233.904C150.015 234.331 152.249 234.109 154.279 233.267C156.309 232.426 158.043 231.001 159.264 229.174C160.484 227.346 161.135 225.198 161.135 223.001C161.138 221.538 160.852 220.09 160.293 218.739C159.734 217.387 158.914 216.16 157.879 215.127C156.844 214.094 155.615 213.276 154.262 212.72C152.91 212.163 151.461 211.88 149.999 211.886ZM149.999 230.216C148.572 230.216 147.177 229.792 145.99 229C144.804 228.207 143.879 227.08 143.333 225.762C142.787 224.443 142.644 222.993 142.922 221.593C143.201 220.194 143.888 218.908 144.897 217.899C145.906 216.89 147.192 216.203 148.591 215.924C149.991 215.646 151.441 215.789 152.76 216.335C154.078 216.881 155.205 217.806 155.998 218.992C156.791 220.179 157.214 221.574 157.214 223.001C157.214 223.948 157.027 224.886 156.664 225.762C156.302 226.637 155.77 227.432 155.1 228.102C154.431 228.772 153.635 229.304 152.76 229.666C151.884 230.029 150.946 230.216 149.999 230.216Z" fill="white"/>
<defs>
<linearGradient id="paint0_linear_1_188" x1="366.387" y1="-21.4217" x2="-88.1158" y2="565.304" gradientUnits="userSpaceOnUse">
<stop offset="0.0876704" stop-opacity="0.75"/>
<stop offset="0.791303" stop-opacity="0.64"/>
</linearGradient>
</defs>
</svg>
